<svg width="24" height="25" viewBox="0 0 24 25" fill="none" xmlns="http://www.w3.org/2000/svg">
<path d="M3 17.5C3 18.0523 3.44772 18.5 4 18.5H20C20.5523 18.5 21 18.0523 21 17.5C21 16.9477 20.5523 16.5 20 16.5H4C3.44772 16.5 3 16.9477 3 17.5ZM3 12.5C3 13.0523 3.44772 13.5 4 13.5H20C20.5523 13.5 21 13.0523 21 12.5C21 11.9477 20.5523 11.5 20 11.5H4C3.44772 11.5 3 11.9477 3 12.5ZM4 6.5C3.44772 6.5 3 6.94772 3 7.5C3 8.05228 3.44772 8.5 4 8.5H20C20.5523 8.5 21 8.05228 21 7.5C21 6.94772 20.5523 6.5 20 6.5H4Z" fill="#3E4146"/>
</svg>
