<svg width="64" height="64" viewBox="0 0 64 64" fill="none" xmlns="http://www.w3.org/2000/svg">
<path d="M19.061 32.0975C19.061 37.8868 23.7681 42.6018 29.5565 42.6018C35.3458 42.6018 40.0608 37.8867 40.0608 32.0975C40.0608 26.3083 35.3457 21.6021 29.5565 21.6021C23.7676 21.6017 19.061 26.3087 19.061 32.0975ZM39.0216 32.0975C39.0216 37.3162 34.7761 41.5532 29.5659 41.5532C24.3556 41.5532 20.1187 37.3077 20.1187 32.0975C20.1187 26.8872 24.3556 22.6503 29.5659 22.6503C34.7761 22.6503 39.0216 26.8872 39.0216 32.0975Z" fill="url(#paint0_linear_12971_67588)"/>
<path fill-rule="evenodd" clip-rule="evenodd" d="M29.5565 21.3521C23.6295 21.3517 18.811 26.1706 18.811 32.0975L29.5565 21.3521ZM29.5565 21.8521C23.9057 21.8517 19.311 26.4467 19.311 32.0975C19.311 37.749 23.9064 42.3518 29.5565 42.3518C35.2077 42.3518 39.8108 37.7486 39.8108 32.0975C39.8108 26.4466 35.2079 21.8521 29.5565 21.8521H29.5565ZM29.5565 21.3521C35.4835 21.3521 40.3108 26.1699 40.3108 32.0975C40.3108 38.0248 35.4839 42.8518 29.5565 42.8518C23.6297 42.8518 18.811 38.0246 18.811 32.0975M29.5659 22.9003C24.4937 22.9003 20.3687 27.0253 20.3687 32.0975C20.3687 37.17 24.494 41.3032 29.5659 41.3032C34.6382 41.3032 38.7716 37.178 38.7716 32.0975C38.7716 27.0256 34.6383 22.9003 29.5659 22.9003ZM19.8687 32.0975C19.8687 26.7492 24.2176 22.4003 29.5659 22.4003C34.9139 22.4003 39.2716 26.7489 39.2716 32.0975C39.2716 37.4545 34.914 41.8032 29.5659 41.8032C24.2173 41.8032 19.8687 37.4455 19.8687 32.0975Z" fill="url(#paint1_linear_12971_67588)"/>
<path d="M27.1662 25.9132V29.7055H23.3739C23.0884 29.7055 22.8455 29.9404 22.8455 30.234V33.9761C22.8455 34.2696 23.0803 34.5045 23.3739 34.5045H27.1662V38.2969C27.1662 38.5904 27.4011 38.8253 27.6946 38.8253H31.4283C31.7137 38.8253 31.9567 38.5904 31.9567 38.2969V34.5045H35.7575C36.043 34.5045 36.286 34.2696 36.286 33.9761V30.234C36.286 29.9404 36.0511 29.7055 35.7575 29.7055H31.9486V25.9132C31.9486 25.6196 31.7137 25.3848 31.4202 25.3848H27.6865C27.4011 25.3929 27.1662 25.6281 27.1662 25.9132H27.1662ZM28.2149 30.2258V26.4334H30.8998V30.2258C30.8998 30.5193 31.1346 30.7542 31.4282 30.7542H35.229V33.4475H31.4282C31.1427 33.4475 30.8998 33.6824 30.8998 33.976V37.7683H28.2149V33.976C28.2149 33.6824 27.98 33.4475 27.6865 33.4475H23.8941V30.7542H27.6865C27.98 30.7542 28.2149 30.5193 28.2149 30.2258Z" fill="url(#paint2_linear_12971_67588)"/>
<path fill-rule="evenodd" clip-rule="evenodd" d="M27.6865 25.1348H31.4202C31.8518 25.1348 32.1986 25.4815 32.1986 25.9132V29.4555H35.7575C36.1892 29.4555 36.536 29.8023 36.536 30.234V33.9761C36.536 34.4102 36.1786 34.7545 35.7575 34.7545H32.2067V38.2969C32.2067 38.731 31.8493 39.0753 31.4283 39.0753H27.6946C27.263 39.0753 26.9162 38.7285 26.9162 38.2969V34.7545H23.3739C22.9422 34.7545 22.5955 34.4077 22.5955 33.9761V30.234C22.5955 29.7998 22.9529 29.4555 23.3739 29.4555H26.9162V25.6632H26.9581C27.0622 25.3617 27.3487 25.1443 27.6794 25.1349L27.6865 25.1348ZM27.4162 26.1632V29.9555H23.3739C23.224 29.9555 23.0955 30.0809 23.0955 30.234V33.9761C23.0955 34.1316 23.2184 34.2545 23.3739 34.2545H27.4162V38.2969C27.4162 38.4523 27.5391 38.5753 27.6946 38.5753H31.4283C31.5781 38.5753 31.7067 38.4499 31.7067 38.2969V34.2545H35.7575C35.9074 34.2545 36.036 34.1291 36.036 33.9761V30.234C36.036 30.0785 35.913 29.9555 35.7575 29.9555H31.6986V25.9132C31.6986 25.7577 31.5757 25.6348 31.4202 25.6348H27.6906C27.5378 25.6407 27.4162 25.7683 27.4162 25.9132L27.4162 26.1632ZM27.9649 26.1834H31.1498V30.2258C31.1498 30.3813 31.2727 30.5042 31.4282 30.5042H35.479V33.6975H31.4282C31.2783 33.6975 31.1498 33.823 31.1498 33.976V38.0183H27.9649V33.976C27.9649 33.8205 27.842 33.6975 27.6865 33.6975H23.6441V30.5042H27.6865C27.842 30.5042 27.9649 30.3813 27.9649 30.2258V26.1834ZM28.4649 26.6834V30.2258C28.4649 30.6574 28.1181 31.0042 27.6865 31.0042H24.1441V33.1975H27.6865C28.1181 33.1975 28.4649 33.5443 28.4649 33.976V37.5183H30.6498V33.976C30.6498 33.5418 31.0072 33.1975 31.4282 33.1975H34.979V31.0042H31.4282C30.9965 31.0042 30.6498 30.6574 30.6498 30.2258V26.6834H28.4649Z" fill="url(#paint3_linear_12971_67588)"/>
<path d="M54.3077 35.839V34.698H54.6936C55.3986 34.698 55.9771 34.119 55.9771 33.4145V30.8977C55.9771 29.6308 54.945 28.5986 53.6781 28.5986H43.9292C42.6623 28.5986 41.6302 29.6308 41.6302 30.8977V33.4145C41.6302 34.1195 42.2092 34.698 42.9137 34.698H43.2996V35.839C41.1851 36.099 39.5493 37.9028 39.5493 40.0845V51.721C39.5493 54.0788 41.4706 56 43.8283 56H53.7957C56.1535 56 58.0747 54.0787 58.0747 51.721V40.0845C58.0662 37.9032 56.4218 36.0994 54.3074 35.839H54.3077ZM42.6791 33.4144V30.8976C42.6791 30.2096 43.2411 29.6476 43.9291 29.6476L53.6788 29.6472C54.3667 29.6472 54.9287 30.2092 54.9287 30.8972V33.414C54.9287 33.54 54.8279 33.6489 54.6939 33.6489H53.7877L43.8203 33.6493H42.9141C42.7797 33.6493 42.6789 33.5485 42.6789 33.4144H42.6791ZM49.4584 40.6047C49.7605 40.6047 50.0038 40.8481 50.0038 41.1501V50.4463C50.0038 50.7484 49.7605 50.9917 49.4584 50.9917H40.5902V40.605L49.4584 40.6047ZM57.0179 51.7132C57.0179 53.4919 55.5663 54.9435 53.7876 54.9435H43.8202C42.1504 54.9435 40.7915 53.6682 40.6235 52.0404H49.4581C50.3392 52.0404 51.0522 51.3274 51.0522 50.4463V41.1502C51.0522 40.2691 50.3392 39.5561 49.4581 39.5561H40.6401C40.892 38.0292 42.2176 36.8546 43.8117 36.8546C44.0972 36.8546 44.3401 36.6197 44.3401 36.3262V34.6985L53.2589 34.6981V36.3258C53.2589 36.6193 53.4937 36.8542 53.7873 36.8542C55.566 36.8542 57.0176 38.3058 57.0176 40.0845L57.0179 51.7132Z" fill="url(#paint4_linear_12971_67588)"/>
<path fill-rule="evenodd" clip-rule="evenodd" d="M41.3802 30.8977C41.3802 29.4927 42.5243 28.3486 43.9292 28.3486H53.6781C55.0831 28.3486 56.2271 29.4927 56.2271 30.8977V33.4145C56.2271 34.257 55.5367 34.948 54.6936 34.948H54.5577V35.6235C56.6886 35.9928 58.316 37.8509 58.3247 40.0835L58.3247 51.721C58.3247 54.2168 56.2915 56.25 53.7957 56.25H43.8283C41.3325 56.25 39.2993 54.2169 39.2993 51.721V40.0845C39.2993 37.8512 40.9185 35.9923 43.0496 35.6234V34.948H42.9137C42.0712 34.948 41.3802 34.2576 41.3802 33.4145V30.8977ZM54.2921 35.839H54.0577V34.448H54.6936C55.2604 34.448 55.7271 33.981 55.7271 33.4145V30.8977C55.7271 29.7688 54.8069 28.8486 53.6781 28.8486H43.9292C42.8004 28.8486 41.8802 29.7688 41.8802 30.8977V33.4145C41.8802 33.9813 42.3472 34.448 42.9137 34.448H43.5496V36.0602L43.3301 36.0872C41.3395 36.3319 39.7993 38.0305 39.7993 40.0845V51.721C39.7993 53.9407 41.6087 55.75 43.8283 55.75H53.7957C56.0154 55.75 57.8247 53.9407 57.8247 51.721L57.8247 40.0855C57.8247 40.0853 57.8247 40.0856 57.8247 40.0855C57.8164 38.032 56.2678 36.3323 54.2769 36.0872L54.2921 35.839ZM53.6788 29.8972L43.9291 29.8976C43.3792 29.8976 42.9291 30.3477 42.9291 30.8976V33.3993L54.6787 33.3989V30.8972C54.6787 30.3473 54.2286 29.8972 53.6788 29.8972ZM42.4291 33.1644L42.4289 33.4144C42.4289 33.6868 42.6419 33.8993 42.9141 33.8993L54.6939 33.8989C54.9716 33.8989 55.1787 33.6724 55.1787 33.414V30.8972C55.1787 30.0711 54.5048 29.3972 53.6788 29.3972L43.9291 29.3976C43.9291 29.3976 43.9291 29.3976 43.9291 29.3976C43.103 29.3976 42.4291 30.0716 42.4291 30.8976V33.1644ZM53.5089 34.4481V36.3258C53.5089 36.4813 53.6318 36.6042 53.7873 36.6042C55.7041 36.6042 57.2676 38.1677 57.2676 40.0845L57.2679 51.7132C57.2679 53.63 55.7044 55.1935 53.7876 55.1935H43.8202C42.0185 55.1935 40.5556 53.8176 40.3748 52.0661L40.3464 51.7904H49.4581C50.2011 51.7904 50.8022 51.1893 50.8022 50.4463V41.1502C50.8022 40.4072 50.2011 39.8061 49.4581 39.8061H40.3455L40.3935 39.5154C40.6647 37.8711 42.0919 36.6046 43.8117 36.6046C43.9616 36.6046 44.0901 36.4792 44.0901 36.3262V34.4485L53.5089 34.4481ZM44.5901 34.9484V36.3262C44.5901 36.7603 44.2327 37.1046 43.8117 37.1046C42.446 37.1046 41.2917 38.0411 40.9499 39.3061H49.4581C50.4773 39.3061 51.3022 40.131 51.3022 41.1502V50.4463C51.3022 51.4655 50.4773 52.2904 49.4581 52.2904H40.9135C41.1841 53.6599 42.3775 54.6935 43.8202 54.6935H53.7876C55.4283 54.6935 56.7679 53.3539 56.7679 51.7132L56.7676 40.0845C56.7676 38.4439 55.4279 37.1042 53.7873 37.1042C53.3557 37.1042 53.0089 36.7574 53.0089 36.3258V34.9481L44.5901 34.9484ZM40.8402 40.855V50.7417H49.4584C49.6224 50.7417 49.7538 50.6103 49.7538 50.4463V41.1501C49.7538 40.9861 49.6224 40.8547 49.4584 40.8547L40.8402 40.855ZM49.4584 40.3547C49.8985 40.3547 50.2538 40.71 50.2538 41.1501V50.4463C50.2538 50.8864 49.8985 51.2417 49.4584 51.2417H40.3402V40.355L49.4584 40.3547Z" fill="url(#paint5_linear_12971_67588)"/>
<path d="M19.8926 48.9776H16.8133V15.2239H42.3112V26.9949C42.3112 27.2885 42.5461 27.5233 42.8397 27.5233C43.1332 27.5233 43.3681 27.2885 43.3681 26.9949L43.3685 15.2239H46.6575V26.6093C46.6575 26.9029 46.8923 27.1377 47.1859 27.1377C47.4795 27.1377 47.7143 26.9029 47.7143 26.6093V15.2239H48.7881C51.1625 15.2239 53.1007 17.1537 53.1007 19.5365V26.6178C53.1007 26.9114 53.3355 27.1462 53.6291 27.1462C53.9227 27.1462 54.1575 26.9114 54.1575 26.6178V19.5365C54.1575 16.5831 51.758 14.1751 48.7962 14.1751H48.2929V13.8059C48.2929 12.0021 46.8247 10.5419 45.0289 10.5419C43.2251 10.5419 41.765 12.0102 41.765 13.8059V14.1751H38.8032L38.8039 10.8023C38.8039 9.25848 37.5455 8 36.0016 8H23.1567C21.6128 8 20.3543 9.25848 20.3543 10.8023V14.1666H17.3925V13.7974C17.3925 11.9935 15.9243 10.5334 14.1286 10.5334C12.3332 10.5334 10.8646 12.0017 10.8646 13.7974V14.1666H10.3613C7.408 14.1666 5 16.5661 5 19.528L5.00077 44.665C5.00077 47.6184 7.40027 50.0264 10.3621 50.0264H19.9017C20.1871 50.0264 20.4301 49.7915 20.4301 49.498C20.4301 49.204 20.1861 48.9776 19.8926 48.9776ZM15.7646 48.9776H12.4841V15.2239H15.7731V48.9776H15.7646ZM34.7511 14.1757H24.3813V12.7748C24.3813 12.3132 24.7587 11.9273 25.2202 11.9273H33.9038C34.3653 11.9273 34.7512 12.3047 34.7512 12.7748L34.7511 14.1757ZM42.7888 13.8065C42.7888 12.5816 43.7874 11.5917 45.0036 11.5917C46.2204 11.5917 47.2184 12.5902 47.2184 13.8065V14.1757H42.7803V13.8065H42.7888ZM21.4024 10.8029C21.4024 9.83802 22.1912 9.04931 23.156 9.04931H35.9762C36.9411 9.04931 37.7298 9.83806 37.7298 10.8029V14.1672H35.8V12.7662C35.8 11.726 34.9525 10.87 33.9038 10.87H25.2203C24.1801 10.87 23.3326 11.7175 23.3326 12.7662V14.1672H21.4028L21.4024 10.8029ZM11.9135 13.8065C11.9135 12.5816 12.9035 11.5917 14.1283 11.5917C15.3532 11.5917 16.3431 12.5902 16.3431 13.8065V14.1757H11.9134L11.9135 13.8065ZM6.04886 44.6649V19.5278C6.04886 17.1535 7.97866 15.2153 10.3614 15.2153H11.4437V48.968L10.3529 48.9684C7.97856 48.9769 6.04886 47.0477 6.04886 44.6649Z" fill="url(#paint6_linear_12971_67588)"/>
<path fill-rule="evenodd" clip-rule="evenodd" d="M20.1043 10.8023C20.1043 9.12041 21.4748 7.75 23.1567 7.75H36.0016C37.6835 7.75 39.0539 9.12041 39.0539 10.8024L39.0532 13.9251H41.515V13.8059C41.515 11.8725 43.0866 10.2919 45.0289 10.2919C46.9623 10.2919 48.5429 11.8636 48.5429 13.8059V13.9251H48.7962C51.8963 13.9251 54.4075 16.4453 54.4075 19.5365V26.6178C54.4075 27.0494 54.0607 27.3962 53.6291 27.3962C53.1975 27.3962 52.8507 27.0494 52.8507 26.6178V19.5365C52.8507 17.2921 51.0247 15.4739 48.7881 15.4739H47.9643V26.6093C47.9643 27.0409 47.6175 27.3877 47.1859 27.3877C46.7543 27.3877 46.4075 27.0409 46.4075 26.6093V15.4739H43.6184L43.6181 26.9949C43.6181 27.4266 43.2713 27.7733 42.8397 27.7733C42.408 27.7733 42.0612 27.4266 42.0612 26.9949V15.4739H17.0633V48.7276H19.8926C20.3134 48.7276 20.6801 49.0554 20.6801 49.498C20.6801 49.9321 20.3227 50.2764 19.9017 50.2764H10.3621C7.26194 50.2764 4.75077 47.7562 4.75077 44.665L4.75 19.528C4.75 16.4278 7.27019 13.9166 10.3613 13.9166H10.6146V13.7974C10.6146 11.8636 12.1952 10.2834 14.1286 10.2834C16.0619 10.2834 17.6425 11.8551 17.6425 13.7974V13.9166H20.1043V10.8023ZM23.1567 8.25C21.7509 8.25 20.6043 9.39656 20.6043 10.8023V14.4166H17.1425V13.7974C17.1425 12.132 15.7866 10.7834 14.1286 10.7834C12.4713 10.7834 11.1146 12.1397 11.1146 13.7974V14.4166H10.3613C7.54581 14.4166 5.25 16.7045 5.25 19.528L5.25077 44.665C5.25077 47.4806 7.5386 49.7764 10.3621 49.7764H19.9017C20.0515 49.7764 20.1801 49.651 20.1801 49.498C20.1801 49.3527 20.0589 49.2276 19.8926 49.2276H16.5633V14.9739H42.5612V26.9949C42.5612 27.1504 42.6842 27.2733 42.8397 27.2733C42.9952 27.2733 43.1181 27.1504 43.1181 26.9949L43.1185 14.9739H46.9075V26.6093C46.9075 26.7648 47.0304 26.8877 47.1859 26.8877C47.3414 26.8877 47.4643 26.7648 47.4643 26.6093V14.9739H48.7881C51.3002 14.9739 53.3507 17.0153 53.3507 19.5365V26.6178C53.3507 26.7733 53.4736 26.8962 53.6291 26.8962C53.7846 26.8962 53.9075 26.7733 53.9075 26.6178V19.5365C53.9075 16.721 51.6197 14.4251 48.7962 14.4251H48.0429V13.8059C48.0429 12.1405 46.687 10.7919 45.0289 10.7919C43.3636 10.7919 42.015 12.1478 42.015 13.8059V14.4251H38.5531L38.5539 10.8023C38.5539 9.39656 37.4074 8.25 36.0016 8.25H23.1567ZM23.156 9.29931C22.3292 9.29931 21.6524 9.97609 21.6524 10.8029L21.6528 13.9172H23.0826V12.7662C23.0826 11.5802 24.0413 10.62 25.2203 10.62H33.9038C35.0913 10.62 36.05 11.5886 36.05 12.7662V13.9172H37.4798V10.8029C37.4798 9.97613 36.803 9.29931 35.9762 9.29931H23.156ZM21.1524 10.8029C21.1524 9.69994 22.0531 8.79931 23.156 8.79931H35.9762C37.0792 8.79931 37.9798 9.69999 37.9798 10.8029V14.4172H35.55V12.7662C35.55 11.8633 34.8137 11.12 33.9038 11.12H25.2203C24.3189 11.12 23.5826 11.8548 23.5826 12.7662V14.4172H21.1529L21.1524 10.8029ZM14.1283 11.8417C13.0416 11.8417 12.1635 12.7197 12.1635 13.8065L12.1635 13.9257H16.0931V13.8065C16.0931 12.7276 15.2145 11.8417 14.1283 11.8417ZM11.6635 13.8064C11.6636 12.4435 12.7655 11.3417 14.1283 11.3417C15.4919 11.3417 16.5931 12.4528 16.5931 13.8065V14.4257H11.6633L11.6635 13.8064C11.6635 13.8064 11.6635 13.8064 11.6635 13.8064ZM45.0036 11.8417C43.9248 11.8417 43.0388 12.7203 43.0388 13.8065V13.9257H46.9684V13.8065C46.9684 12.7282 46.0823 11.8417 45.0036 11.8417ZM42.5514 13.5565C42.6773 12.3108 43.7337 11.3417 45.0036 11.3417C46.3585 11.3417 47.4684 12.4522 47.4684 13.8065V14.4257H42.5303V13.5565H42.5514ZM25.2202 12.1773C24.9 12.1773 24.6313 12.448 24.6313 12.7748V13.9257H34.5012L34.5012 12.7748C34.5012 12.4444 34.2289 12.1773 33.9038 12.1773H25.2202ZM24.1313 12.7748C24.1313 12.1784 24.6173 11.6773 25.2202 11.6773H33.9038C34.5018 11.6773 35.0012 12.165 35.0012 12.7748L35.0011 14.4257H24.1313V12.7748ZM10.3614 15.4653C8.11705 15.4653 6.29886 17.2912 6.29886 19.5278V44.6649C6.29886 46.9101 8.11689 48.7264 10.352 48.7184L11.1937 48.7181V15.4653H10.3614ZM5.79886 19.5278C5.79886 17.0157 7.84027 14.9653 10.3614 14.9653H11.6937V49.2179L10.3538 49.2184C7.84023 49.2274 5.79886 47.1853 5.79886 44.6649V19.5278ZM12.2341 14.9739H16.0231V49.2276H12.2341V14.9739ZM12.7341 15.4739V48.7276H15.5231V15.4739H12.7341Z" fill="url(#paint7_linear_12971_67588)"/>
<path d="M38.6271 54.9018C38.4927 54.9184 38.3501 54.9354 38.2161 54.9354H33.2326V46.7301H37.5533C37.8387 46.7301 38.0817 46.4952 38.0817 46.2017C38.0817 45.9081 37.8468 45.6732 37.5533 45.6732L32.7038 45.6729H26.8391C23.995 45.6729 21.6875 47.98 21.6875 50.8245C21.6875 53.6685 23.9946 55.9761 26.8391 55.9761H38.2077C38.3923 55.9761 38.577 55.951 38.8284 55.9259L38.7612 55.4056L38.6271 54.9018ZM22.7366 50.8325C22.7366 48.5671 24.574 46.7297 26.8394 46.7297H32.1756V54.935H26.8394C24.5825 54.9439 22.7366 53.0979 22.7366 50.8325Z" fill="url(#paint8_linear_12971_67588)"/>
<path fill-rule="evenodd" clip-rule="evenodd" d="M21.4375 50.8245C21.4375 47.8419 23.857 45.4229 26.8391 45.4229L37.5533 45.4232C37.5533 45.4232 37.5533 45.4232 37.5533 45.4232C37.9849 45.4232 38.3317 45.77 38.3317 46.2017C38.3317 46.6358 37.9743 46.9801 37.5533 46.9801H33.4826V54.6854H38.2161C38.3324 54.6854 38.46 54.6705 38.5964 54.6537L38.8126 54.6269L39.007 55.3572L39.1093 56.1491L38.8532 56.1746C38.8026 56.1797 38.7535 56.1849 38.7056 56.19C38.5274 56.2089 38.3662 56.2261 38.2077 56.2261H26.8391C23.8566 56.2261 21.4375 53.8066 21.4375 50.8245ZM26.8391 45.9229C24.1331 45.9229 21.9375 48.1181 21.9375 50.8245C21.9375 53.5305 24.1327 55.7261 26.8391 55.7261H38.2077C38.314 55.7261 38.4185 55.717 38.5476 55.7037L38.5154 55.4539L38.4409 55.1741C38.367 55.1807 38.2909 55.1854 38.2161 55.1854H32.9826V46.4801H37.5533C37.7032 46.4801 37.8317 46.3547 37.8317 46.2017C37.8317 46.0462 37.7088 45.9232 37.5533 45.9232L26.8391 45.9229ZM26.8394 46.9797C24.7121 46.9797 22.9866 48.7052 22.9866 50.8325C22.9866 52.9604 24.7209 54.6933 26.8384 54.685L31.9256 54.685V46.9797H26.8394ZM22.4866 50.8325C22.4866 48.4291 24.4359 46.4797 26.8394 46.4797H32.4256V55.185H26.8399C24.4439 55.1942 22.4866 53.2353 22.4866 50.8325Z" fill="url(#paint9_linear_12971_67588)"/>
<defs>
<linearGradient id="paint0_linear_12971_67588" x1="19.7435" y1="23.8333" x2="40.0204" y2="42.6454" gradientUnits="userSpaceOnUse">
<stop stop-color="#714194"/>
<stop offset="1" stop-color="#255CA3"/>
</linearGradient>
<linearGradient id="paint1_linear_12971_67588" x1="19.5098" y1="23.6364" x2="40.2695" y2="42.8964" gradientUnits="userSpaceOnUse">
<stop stop-color="#714194"/>
<stop offset="1" stop-color="#255CA3"/>
</linearGradient>
<linearGradient id="paint2_linear_12971_67588" x1="23.2823" y1="26.8128" x2="36.2601" y2="38.8531" gradientUnits="userSpaceOnUse">
<stop stop-color="#714194"/>
<stop offset="1" stop-color="#255CA3"/>
</linearGradient>
<linearGradient id="paint3_linear_12971_67588" x1="23.0485" y1="26.6159" x2="36.5091" y2="39.1042" gradientUnits="userSpaceOnUse">
<stop stop-color="#714194"/>
<stop offset="1" stop-color="#255CA3"/>
</linearGradient>
<linearGradient id="paint4_linear_12971_67588" x1="40.1514" y1="31.51" x2="64.0381" y2="46.4926" gradientUnits="userSpaceOnUse">
<stop stop-color="#714194"/>
<stop offset="1" stop-color="#255CA3"/>
</linearGradient>
<linearGradient id="paint5_linear_12971_67588" x1="39.9176" y1="31.3132" x2="64.3301" y2="46.757" gradientUnits="userSpaceOnUse">
<stop stop-color="#714194"/>
<stop offset="1" stop-color="#255CA3"/>
</linearGradient>
<linearGradient id="paint6_linear_12971_67588" x1="6.59762" y1="12.4653" x2="47.1558" y2="56.4784" gradientUnits="userSpaceOnUse">
<stop stop-color="#714194"/>
<stop offset="1" stop-color="#255CA3"/>
</linearGradient>
<linearGradient id="paint7_linear_12971_67588" x1="6.36387" y1="12.2684" x2="47.4103" y2="56.7354" gradientUnits="userSpaceOnUse">
<stop stop-color="#714194"/>
<stop offset="1" stop-color="#255CA3"/>
</linearGradient>
<linearGradient id="paint8_linear_12971_67588" x1="22.2446" y1="46.7676" x2="31.3499" y2="60.8213" gradientUnits="userSpaceOnUse">
<stop stop-color="#714194"/>
<stop offset="1" stop-color="#255CA3"/>
</linearGradient>
<linearGradient id="paint9_linear_12971_67588" x1="22.0118" y1="46.5707" x2="31.624" y2="61.1583" gradientUnits="userSpaceOnUse">
<stop stop-color="#714194"/>
<stop offset="1" stop-color="#255CA3"/>
</linearGradient>
</defs>
</svg>
